<mxfile host="app.diagrams.net" modified="2024-06-05T07:26:07.452Z" agent="Mozilla/5.0 (Windows NT 10.0; Win64; x64) AppleWebKit/537.36 (KHTML, like Gecko) Chrome/116.0.0.0 Safari/537.36" etag="uZI5lRcIui2XZVd7jjB3" version="24.4.13" type="github">
  <diagram id="C5RBs43oDa-KdzZeNtuy" name="Page-1">
    <mxGraphModel dx="1436" dy="905" grid="1" gridSize="10" guides="1" tooltips="1" connect="1" arrows="1" fold="1" page="1" pageScale="1" pageWidth="827" pageHeight="1169" math="0" shadow="0">
      <root>
        <mxCell id="WIyWlLk6GJQsqaUBKTNV-0" />
        <mxCell id="WIyWlLk6GJQsqaUBKTNV-1" parent="WIyWlLk6GJQsqaUBKTNV-0" />
        <mxCell id="9LDn9u9Lr8wdJQs9lt3B-1" value="工资保证金备案流程" style="swimlane;childLayout=stackLayout;resizeParent=1;resizeParentMax=0;startSize=20;html=1;" vertex="1" parent="WIyWlLk6GJQsqaUBKTNV-1">
          <mxGeometry x="200" y="150" width="1492.5" height="1980" as="geometry" />
        </mxCell>
        <mxCell id="9LDn9u9Lr8wdJQs9lt3B-2" value="施工单位" style="swimlane;startSize=20;html=1;" vertex="1" parent="9LDn9u9Lr8wdJQs9lt3B-1">
          <mxGeometry y="20" width="240" height="1960" as="geometry" />
        </mxCell>
        <mxCell id="9LDn9u9Lr8wdJQs9lt3B-81" value="" style="edgeStyle=orthogonalEdgeStyle;rounded=0;orthogonalLoop=1;jettySize=auto;html=1;" edge="1" parent="9LDn9u9Lr8wdJQs9lt3B-2" source="9LDn9u9Lr8wdJQs9lt3B-77" target="9LDn9u9Lr8wdJQs9lt3B-80">
          <mxGeometry relative="1" as="geometry" />
        </mxCell>
        <mxCell id="9LDn9u9Lr8wdJQs9lt3B-77" value="&lt;p class=&quot;MsoNormal&quot;&gt;&lt;span style=&quot;mso-spacerun:&#39;yes&#39;;font-family:宋体;mso-ascii-font-family:Calibri;&lt;br/&gt;mso-hansi-font-family:Calibri;mso-bidi-font-family:&#39;Times New Roman&#39;;font-size:10.5000pt;&lt;br/&gt;mso-font-kerning:1.0000pt;&quot;&gt;&lt;font face=&quot;宋体&quot;&gt;履行告知义务（告知试算结果和理由，区域内缓、免、少政策，办理流程）&lt;/font&gt;&lt;/span&gt;&lt;font style=&quot;font-family: 宋体; font-size: 10.5pt; background-color: initial;&quot; face=&quot;宋体&quot;&gt;施工单位确定适用政策情况&lt;/font&gt;&lt;span style=&quot;font-family: 宋体; font-size: 10.5pt; background-color: initial;&quot;&gt; &lt;/span&gt;&lt;font style=&quot;font-family: 宋体; font-size: 10.5pt; background-color: initial;&quot; face=&quot;宋体&quot;&gt;选择缴存方式&lt;/font&gt;&lt;span style=&quot;font-family: 宋体; font-size: 10.5pt; background-color: initial;&quot;&gt; &lt;/span&gt;&lt;font style=&quot;font-family: 宋体; font-size: 10.5pt; background-color: initial;&quot; face=&quot;宋体&quot;&gt;缴存额度&lt;/font&gt;&lt;/p&gt;" style="whiteSpace=wrap;html=1;strokeWidth=2;" vertex="1" parent="9LDn9u9Lr8wdJQs9lt3B-2">
          <mxGeometry x="27.75" y="900" width="206.25" height="90" as="geometry" />
        </mxCell>
        <mxCell id="9LDn9u9Lr8wdJQs9lt3B-80" value="施工单位备案申报" style="whiteSpace=wrap;html=1;strokeWidth=2;" vertex="1" parent="9LDn9u9Lr8wdJQs9lt3B-2">
          <mxGeometry x="70.86999999999999" y="1060" width="120" height="60" as="geometry" />
        </mxCell>
        <mxCell id="9LDn9u9Lr8wdJQs9lt3B-83" style="edgeStyle=orthogonalEdgeStyle;rounded=0;orthogonalLoop=1;jettySize=auto;html=1;entryX=0;entryY=0.5;entryDx=0;entryDy=0;" edge="1" parent="9LDn9u9Lr8wdJQs9lt3B-2" source="9LDn9u9Lr8wdJQs9lt3B-26" target="9LDn9u9Lr8wdJQs9lt3B-80">
          <mxGeometry relative="1" as="geometry">
            <Array as="points">
              <mxPoint x="116" y="790" />
              <mxPoint x="20" y="790" />
              <mxPoint x="20" y="1090" />
            </Array>
          </mxGeometry>
        </mxCell>
        <mxCell id="9LDn9u9Lr8wdJQs9lt3B-26" value="&lt;p class=&quot;MsoNormal&quot;&gt;&lt;span style=&quot;mso-spacerun:&#39;yes&#39;;font-family:宋体;mso-ascii-font-family:Calibri;&lt;br/&gt;mso-hansi-font-family:Calibri;mso-bidi-font-family:&#39;Times New Roman&#39;;font-size:10.5000pt;&lt;br/&gt;mso-font-kerning:1.0000pt;&quot;&gt;施工单位在门户网站主动申报&lt;/span&gt;&lt;/p&gt;" style="whiteSpace=wrap;html=1;strokeWidth=2;" vertex="1" parent="9LDn9u9Lr8wdJQs9lt3B-2">
          <mxGeometry x="40" y="470" width="152.5" height="50" as="geometry" />
        </mxCell>
        <mxCell id="9LDn9u9Lr8wdJQs9lt3B-89" value="施工单位补正材料" style="whiteSpace=wrap;html=1;strokeWidth=2;" vertex="1" parent="9LDn9u9Lr8wdJQs9lt3B-2">
          <mxGeometry x="81.87" y="1524" width="120" height="60" as="geometry" />
        </mxCell>
        <mxCell id="9LDn9u9Lr8wdJQs9lt3B-99" value="" style="edgeStyle=orthogonalEdgeStyle;rounded=0;orthogonalLoop=1;jettySize=auto;html=1;" edge="1" parent="9LDn9u9Lr8wdJQs9lt3B-2" source="9LDn9u9Lr8wdJQs9lt3B-96" target="9LDn9u9Lr8wdJQs9lt3B-98">
          <mxGeometry relative="1" as="geometry" />
        </mxCell>
        <mxCell id="9LDn9u9Lr8wdJQs9lt3B-96" value="确认接收缴存通知书" style="whiteSpace=wrap;html=1;strokeWidth=2;" vertex="1" parent="9LDn9u9Lr8wdJQs9lt3B-2">
          <mxGeometry x="71.86999999999999" y="1660" width="130" height="60" as="geometry" />
        </mxCell>
        <mxCell id="9LDn9u9Lr8wdJQs9lt3B-101" value="" style="edgeStyle=orthogonalEdgeStyle;rounded=0;orthogonalLoop=1;jettySize=auto;html=1;" edge="1" parent="9LDn9u9Lr8wdJQs9lt3B-2" source="9LDn9u9Lr8wdJQs9lt3B-98" target="9LDn9u9Lr8wdJQs9lt3B-100">
          <mxGeometry relative="1" as="geometry" />
        </mxCell>
        <mxCell id="9LDn9u9Lr8wdJQs9lt3B-98" value="是否线上办理？" style="rhombus;whiteSpace=wrap;html=1;strokeWidth=2;" vertex="1" parent="9LDn9u9Lr8wdJQs9lt3B-2">
          <mxGeometry x="55.010000000000005" y="1760" width="163.75" height="60" as="geometry" />
        </mxCell>
        <mxCell id="9LDn9u9Lr8wdJQs9lt3B-100" value="线上选择金融机构，启动在线经办流程" style="whiteSpace=wrap;html=1;strokeWidth=2;" vertex="1" parent="9LDn9u9Lr8wdJQs9lt3B-2">
          <mxGeometry x="76.88499999999999" y="1860" width="120" height="60" as="geometry" />
        </mxCell>
        <mxCell id="9LDn9u9Lr8wdJQs9lt3B-3" value="人社部门" style="swimlane;startSize=20;html=1;" vertex="1" parent="9LDn9u9Lr8wdJQs9lt3B-1">
          <mxGeometry x="240" y="20" width="925" height="1960" as="geometry" />
        </mxCell>
        <mxCell id="9LDn9u9Lr8wdJQs9lt3B-5" value="开始" style="strokeWidth=2;html=1;shape=mxgraph.flowchart.start_2;whiteSpace=wrap;" vertex="1" parent="9LDn9u9Lr8wdJQs9lt3B-3">
          <mxGeometry x="140" y="30" width="40" height="30" as="geometry" />
        </mxCell>
        <mxCell id="9LDn9u9Lr8wdJQs9lt3B-9" value="" style="edgeStyle=orthogonalEdgeStyle;rounded=0;orthogonalLoop=1;jettySize=auto;html=1;" edge="1" parent="9LDn9u9Lr8wdJQs9lt3B-3" source="9LDn9u9Lr8wdJQs9lt3B-6" target="9LDn9u9Lr8wdJQs9lt3B-8">
          <mxGeometry relative="1" as="geometry" />
        </mxCell>
        <mxCell id="9LDn9u9Lr8wdJQs9lt3B-10" value="YES" style="edgeLabel;html=1;align=center;verticalAlign=middle;resizable=0;points=[];" vertex="1" connectable="0" parent="9LDn9u9Lr8wdJQs9lt3B-9">
          <mxGeometry x="-0.2092" y="1" relative="1" as="geometry">
            <mxPoint as="offset" />
          </mxGeometry>
        </mxCell>
        <mxCell id="9LDn9u9Lr8wdJQs9lt3B-6" value="可以从住建、交通、水利获取完整项目信息？" style="strokeWidth=2;html=1;shape=mxgraph.flowchart.decision;whiteSpace=wrap;" vertex="1" parent="9LDn9u9Lr8wdJQs9lt3B-3">
          <mxGeometry x="13.280000000000001" y="80" width="293.44" height="70" as="geometry" />
        </mxCell>
        <mxCell id="9LDn9u9Lr8wdJQs9lt3B-7" style="edgeStyle=orthogonalEdgeStyle;rounded=0;orthogonalLoop=1;jettySize=auto;html=1;entryX=0.5;entryY=0;entryDx=0;entryDy=0;entryPerimeter=0;" edge="1" parent="9LDn9u9Lr8wdJQs9lt3B-3" source="9LDn9u9Lr8wdJQs9lt3B-5" target="9LDn9u9Lr8wdJQs9lt3B-6">
          <mxGeometry relative="1" as="geometry" />
        </mxCell>
        <mxCell id="9LDn9u9Lr8wdJQs9lt3B-63" style="edgeStyle=orthogonalEdgeStyle;rounded=0;orthogonalLoop=1;jettySize=auto;html=1;entryX=0.5;entryY=0;entryDx=0;entryDy=0;" edge="1" parent="9LDn9u9Lr8wdJQs9lt3B-3" source="9LDn9u9Lr8wdJQs9lt3B-8" target="9LDn9u9Lr8wdJQs9lt3B-73">
          <mxGeometry relative="1" as="geometry" />
        </mxCell>
        <mxCell id="9LDn9u9Lr8wdJQs9lt3B-8" value="系统根据各地政策试算存储比例和金额" style="whiteSpace=wrap;html=1;strokeWidth=2;" vertex="1" parent="9LDn9u9Lr8wdJQs9lt3B-3">
          <mxGeometry x="100.005" y="540" width="120" height="60" as="geometry" />
        </mxCell>
        <mxCell id="9LDn9u9Lr8wdJQs9lt3B-32" value="" style="edgeStyle=orthogonalEdgeStyle;rounded=0;orthogonalLoop=1;jettySize=auto;html=1;entryX=0.5;entryY=0;entryDx=0;entryDy=0;entryPerimeter=0;" edge="1" parent="9LDn9u9Lr8wdJQs9lt3B-3" source="9LDn9u9Lr8wdJQs9lt3B-11" target="9LDn9u9Lr8wdJQs9lt3B-31">
          <mxGeometry relative="1" as="geometry" />
        </mxCell>
        <mxCell id="9LDn9u9Lr8wdJQs9lt3B-11" value="无项目信息？" style="strokeWidth=2;html=1;shape=mxgraph.flowchart.decision;whiteSpace=wrap;" vertex="1" parent="9LDn9u9Lr8wdJQs9lt3B-3">
          <mxGeometry x="180" y="190" width="270" height="60" as="geometry" />
        </mxCell>
        <mxCell id="9LDn9u9Lr8wdJQs9lt3B-18" value="" style="edgeStyle=orthogonalEdgeStyle;rounded=0;orthogonalLoop=1;jettySize=auto;html=1;" edge="1" parent="9LDn9u9Lr8wdJQs9lt3B-3" source="9LDn9u9Lr8wdJQs9lt3B-14" target="9LDn9u9Lr8wdJQs9lt3B-17">
          <mxGeometry relative="1" as="geometry" />
        </mxCell>
        <mxCell id="9LDn9u9Lr8wdJQs9lt3B-14" value="&lt;p class=&quot;MsoNormal&quot;&gt;&lt;span style=&quot;mso-spacerun:&#39;yes&#39;;font-family:宋体;mso-ascii-font-family:Calibri;&lt;br/&gt;mso-hansi-font-family:Calibri;mso-bidi-font-family:&#39;Times New Roman&#39;;font-size:10.5000pt;&lt;br/&gt;mso-font-kerning:1.0000pt;&quot;&gt;人社部门在内网手动录入&lt;/span&gt;&lt;span style=&quot;mso-spacerun:&#39;yes&#39;;font-family:宋体;mso-ascii-font-family:Calibri;&lt;br/&gt;mso-hansi-font-family:Calibri;mso-bidi-font-family:&#39;Times New Roman&#39;;font-size:10.5000pt;&lt;br/&gt;mso-font-kerning:1.0000pt;&quot;&gt;&lt;/span&gt;&lt;/p&gt;" style="whiteSpace=wrap;html=1;strokeWidth=2;" vertex="1" parent="9LDn9u9Lr8wdJQs9lt3B-3">
          <mxGeometry x="200" y="300" width="175" height="50" as="geometry" />
        </mxCell>
        <mxCell id="9LDn9u9Lr8wdJQs9lt3B-12" value="" style="edgeStyle=orthogonalEdgeStyle;rounded=0;orthogonalLoop=1;jettySize=auto;html=1;" edge="1" parent="9LDn9u9Lr8wdJQs9lt3B-3" source="9LDn9u9Lr8wdJQs9lt3B-6" target="9LDn9u9Lr8wdJQs9lt3B-11">
          <mxGeometry relative="1" as="geometry" />
        </mxCell>
        <mxCell id="9LDn9u9Lr8wdJQs9lt3B-13" value="NO" style="edgeLabel;html=1;align=center;verticalAlign=middle;resizable=0;points=[];" vertex="1" connectable="0" parent="9LDn9u9Lr8wdJQs9lt3B-12">
          <mxGeometry x="-0.1319" relative="1" as="geometry">
            <mxPoint as="offset" />
          </mxGeometry>
        </mxCell>
        <mxCell id="9LDn9u9Lr8wdJQs9lt3B-15" value="" style="edgeStyle=orthogonalEdgeStyle;rounded=0;orthogonalLoop=1;jettySize=auto;html=1;" edge="1" parent="9LDn9u9Lr8wdJQs9lt3B-3" source="9LDn9u9Lr8wdJQs9lt3B-11" target="9LDn9u9Lr8wdJQs9lt3B-14">
          <mxGeometry relative="1" as="geometry" />
        </mxCell>
        <mxCell id="9LDn9u9Lr8wdJQs9lt3B-16" value="YES" style="edgeLabel;html=1;align=center;verticalAlign=middle;resizable=0;points=[];" vertex="1" connectable="0" parent="9LDn9u9Lr8wdJQs9lt3B-15">
          <mxGeometry x="0.1678" relative="1" as="geometry">
            <mxPoint as="offset" />
          </mxGeometry>
        </mxCell>
        <mxCell id="9LDn9u9Lr8wdJQs9lt3B-19" style="edgeStyle=orthogonalEdgeStyle;rounded=0;orthogonalLoop=1;jettySize=auto;html=1;entryX=1;entryY=0.5;entryDx=0;entryDy=0;" edge="1" parent="9LDn9u9Lr8wdJQs9lt3B-3" source="9LDn9u9Lr8wdJQs9lt3B-17" target="9LDn9u9Lr8wdJQs9lt3B-8">
          <mxGeometry relative="1" as="geometry" />
        </mxCell>
        <mxCell id="9LDn9u9Lr8wdJQs9lt3B-20" value="YES" style="edgeLabel;html=1;align=center;verticalAlign=middle;resizable=0;points=[];" vertex="1" connectable="0" parent="9LDn9u9Lr8wdJQs9lt3B-19">
          <mxGeometry x="-0.0865" y="-1" relative="1" as="geometry">
            <mxPoint as="offset" />
          </mxGeometry>
        </mxCell>
        <mxCell id="9LDn9u9Lr8wdJQs9lt3B-17" value="录入成功？" style="rhombus;whiteSpace=wrap;html=1;strokeWidth=2;" vertex="1" parent="9LDn9u9Lr8wdJQs9lt3B-3">
          <mxGeometry x="220" y="380" width="135" height="60" as="geometry" />
        </mxCell>
        <mxCell id="9LDn9u9Lr8wdJQs9lt3B-34" value="" style="edgeStyle=orthogonalEdgeStyle;rounded=0;orthogonalLoop=1;jettySize=auto;html=1;" edge="1" parent="9LDn9u9Lr8wdJQs9lt3B-3" source="9LDn9u9Lr8wdJQs9lt3B-31" target="9LDn9u9Lr8wdJQs9lt3B-33">
          <mxGeometry relative="1" as="geometry" />
        </mxCell>
        <mxCell id="9LDn9u9Lr8wdJQs9lt3B-35" value="YES" style="edgeLabel;html=1;align=center;verticalAlign=middle;resizable=0;points=[];" vertex="1" connectable="0" parent="9LDn9u9Lr8wdJQs9lt3B-34">
          <mxGeometry x="-0.1333" y="-1" relative="1" as="geometry">
            <mxPoint as="offset" />
          </mxGeometry>
        </mxCell>
        <mxCell id="9LDn9u9Lr8wdJQs9lt3B-37" value="" style="edgeStyle=orthogonalEdgeStyle;rounded=0;orthogonalLoop=1;jettySize=auto;html=1;" edge="1" parent="9LDn9u9Lr8wdJQs9lt3B-3" source="9LDn9u9Lr8wdJQs9lt3B-31" target="9LDn9u9Lr8wdJQs9lt3B-36">
          <mxGeometry relative="1" as="geometry" />
        </mxCell>
        <mxCell id="9LDn9u9Lr8wdJQs9lt3B-38" value="NO" style="edgeLabel;html=1;align=center;verticalAlign=middle;resizable=0;points=[];" vertex="1" connectable="0" parent="9LDn9u9Lr8wdJQs9lt3B-37">
          <mxGeometry x="0.6042" relative="1" as="geometry">
            <mxPoint as="offset" />
          </mxGeometry>
        </mxCell>
        <mxCell id="9LDn9u9Lr8wdJQs9lt3B-31" value="&lt;p class=&quot;MsoNormal&quot;&gt;&lt;span style=&quot;mso-spacerun:&#39;yes&#39;;font-family:宋体;mso-ascii-font-family:Calibri;&lt;br/&gt;mso-hansi-font-family:Calibri;mso-bidi-font-family:&#39;Times New Roman&#39;;font-size:10.5000pt;&lt;br/&gt;mso-font-kerning:1.0000pt;&quot;&gt;能确定是否应当缴存？&lt;/span&gt;&lt;/p&gt;" style="strokeWidth=2;html=1;shape=mxgraph.flowchart.decision;whiteSpace=wrap;" vertex="1" parent="9LDn9u9Lr8wdJQs9lt3B-3">
          <mxGeometry x="460" y="240" width="270" height="60" as="geometry" />
        </mxCell>
        <mxCell id="9LDn9u9Lr8wdJQs9lt3B-42" value="" style="edgeStyle=orthogonalEdgeStyle;rounded=0;orthogonalLoop=1;jettySize=auto;html=1;entryX=1;entryY=0.5;entryDx=0;entryDy=0;exitX=0.5;exitY=1;exitDx=0;exitDy=0;" edge="1" parent="9LDn9u9Lr8wdJQs9lt3B-3" source="9LDn9u9Lr8wdJQs9lt3B-33" target="9LDn9u9Lr8wdJQs9lt3B-8">
          <mxGeometry relative="1" as="geometry" />
        </mxCell>
        <mxCell id="9LDn9u9Lr8wdJQs9lt3B-33" value="&lt;p class=&quot;MsoNormal&quot;&gt;&lt;span style=&quot;mso-spacerun:&#39;yes&#39;;font-family:宋体;mso-ascii-font-family:Calibri;&lt;br/&gt;mso-hansi-font-family:Calibri;mso-bidi-font-family:&#39;Times New Roman&#39;;font-size:10.5000pt;&lt;br/&gt;mso-font-kerning:1.0000pt;&quot;&gt;提醒市级人社部门纳入监管&lt;/span&gt;&lt;span style=&quot;background-color: initial; font-family: 宋体; font-size: 10.5pt;&quot;&gt;督促补正关键信息（列出数据项）启动&lt;/span&gt;&lt;b style=&quot;background-color: initial;&quot;&gt;&lt;span style=&quot;font-family: 宋体; font-size: 10.5pt;&quot;&gt;备案提醒&lt;/span&gt;&lt;/b&gt;&lt;span style=&quot;background-color: initial; font-family: 宋体; font-size: 10.5pt;&quot;&gt;流程&lt;/span&gt;&lt;/p&gt;" style="whiteSpace=wrap;html=1;strokeWidth=2;" vertex="1" parent="9LDn9u9Lr8wdJQs9lt3B-3">
          <mxGeometry x="477.5" y="340" width="235" height="60" as="geometry" />
        </mxCell>
        <mxCell id="9LDn9u9Lr8wdJQs9lt3B-57" style="edgeStyle=orthogonalEdgeStyle;rounded=0;orthogonalLoop=1;jettySize=auto;html=1;entryX=1;entryY=0.5;entryDx=0;entryDy=0;" edge="1" parent="9LDn9u9Lr8wdJQs9lt3B-3" source="9LDn9u9Lr8wdJQs9lt3B-36" target="9LDn9u9Lr8wdJQs9lt3B-8">
          <mxGeometry relative="1" as="geometry">
            <Array as="points">
              <mxPoint x="820" y="570" />
            </Array>
          </mxGeometry>
        </mxCell>
        <mxCell id="9LDn9u9Lr8wdJQs9lt3B-36" value="&lt;p class=&quot;MsoNormal&quot;&gt;&lt;span style=&quot;mso-spacerun:&#39;yes&#39;;font-family:宋体;mso-ascii-font-family:Calibri;&lt;br/&gt;mso-hansi-font-family:Calibri;mso-bidi-font-family:&#39;Times New Roman&#39;;font-size:10.5000pt;&lt;br/&gt;mso-font-kerning:1.0000pt;&quot;&gt;提请行业主管部门、市县人社部门进行补正&lt;/span&gt;&lt;/p&gt;" style="whiteSpace=wrap;html=1;strokeWidth=2;" vertex="1" parent="9LDn9u9Lr8wdJQs9lt3B-3">
          <mxGeometry x="760" y="340" width="120" height="60" as="geometry" />
        </mxCell>
        <mxCell id="9LDn9u9Lr8wdJQs9lt3B-48" value="" style="edgeStyle=orthogonalEdgeStyle;rounded=0;orthogonalLoop=1;jettySize=auto;html=1;" edge="1" parent="9LDn9u9Lr8wdJQs9lt3B-3" source="9LDn9u9Lr8wdJQs9lt3B-45" target="9LDn9u9Lr8wdJQs9lt3B-47">
          <mxGeometry relative="1" as="geometry" />
        </mxCell>
        <mxCell id="9LDn9u9Lr8wdJQs9lt3B-49" value="YES" style="edgeLabel;html=1;align=center;verticalAlign=middle;resizable=0;points=[];" vertex="1" connectable="0" parent="9LDn9u9Lr8wdJQs9lt3B-48">
          <mxGeometry x="-0.2892" y="1" relative="1" as="geometry">
            <mxPoint as="offset" />
          </mxGeometry>
        </mxCell>
        <mxCell id="9LDn9u9Lr8wdJQs9lt3B-60" style="edgeStyle=orthogonalEdgeStyle;rounded=0;orthogonalLoop=1;jettySize=auto;html=1;entryX=1;entryY=0.5;entryDx=0;entryDy=0;exitX=1;exitY=0.5;exitDx=0;exitDy=0;" edge="1" parent="9LDn9u9Lr8wdJQs9lt3B-3" source="9LDn9u9Lr8wdJQs9lt3B-45" target="9LDn9u9Lr8wdJQs9lt3B-50">
          <mxGeometry relative="1" as="geometry" />
        </mxCell>
        <mxCell id="9LDn9u9Lr8wdJQs9lt3B-61" value="NO" style="edgeLabel;html=1;align=center;verticalAlign=middle;resizable=0;points=[];" vertex="1" connectable="0" parent="9LDn9u9Lr8wdJQs9lt3B-60">
          <mxGeometry x="-0.638" relative="1" as="geometry">
            <mxPoint y="-1" as="offset" />
          </mxGeometry>
        </mxCell>
        <mxCell id="9LDn9u9Lr8wdJQs9lt3B-45" value="是否委托给区县办理？" style="rhombus;whiteSpace=wrap;html=1;strokeWidth=2;" vertex="1" parent="9LDn9u9Lr8wdJQs9lt3B-3">
          <mxGeometry x="60" y="1130" width="200" height="80" as="geometry" />
        </mxCell>
        <mxCell id="9LDn9u9Lr8wdJQs9lt3B-51" value="" style="edgeStyle=orthogonalEdgeStyle;rounded=0;orthogonalLoop=1;jettySize=auto;html=1;" edge="1" parent="9LDn9u9Lr8wdJQs9lt3B-3" source="9LDn9u9Lr8wdJQs9lt3B-47" target="9LDn9u9Lr8wdJQs9lt3B-50">
          <mxGeometry relative="1" as="geometry" />
        </mxCell>
        <mxCell id="9LDn9u9Lr8wdJQs9lt3B-47" value="区县办理审批" style="whiteSpace=wrap;html=1;strokeWidth=2;" vertex="1" parent="9LDn9u9Lr8wdJQs9lt3B-3">
          <mxGeometry x="100.01" y="1250" width="120" height="60" as="geometry" />
        </mxCell>
        <mxCell id="9LDn9u9Lr8wdJQs9lt3B-86" value="" style="edgeStyle=orthogonalEdgeStyle;rounded=0;orthogonalLoop=1;jettySize=auto;html=1;" edge="1" parent="9LDn9u9Lr8wdJQs9lt3B-3" source="9LDn9u9Lr8wdJQs9lt3B-50" target="9LDn9u9Lr8wdJQs9lt3B-85">
          <mxGeometry relative="1" as="geometry" />
        </mxCell>
        <mxCell id="9LDn9u9Lr8wdJQs9lt3B-50" value="大市确定审核结果" style="whiteSpace=wrap;html=1;strokeWidth=2;" vertex="1" parent="9LDn9u9Lr8wdJQs9lt3B-3">
          <mxGeometry x="100" y="1360" width="120" height="60" as="geometry" />
        </mxCell>
        <mxCell id="9LDn9u9Lr8wdJQs9lt3B-62" value="人社初步审核试算比例和金额（比例和金额支持修改）" style="whiteSpace=wrap;html=1;strokeWidth=2;" vertex="1" parent="9LDn9u9Lr8wdJQs9lt3B-3">
          <mxGeometry x="100.01499999999999" y="720" width="120" height="60" as="geometry" />
        </mxCell>
        <mxCell id="9LDn9u9Lr8wdJQs9lt3B-74" style="edgeStyle=orthogonalEdgeStyle;rounded=0;orthogonalLoop=1;jettySize=auto;html=1;entryX=0.5;entryY=0;entryDx=0;entryDy=0;" edge="1" parent="9LDn9u9Lr8wdJQs9lt3B-3" source="9LDn9u9Lr8wdJQs9lt3B-73" target="9LDn9u9Lr8wdJQs9lt3B-62">
          <mxGeometry relative="1" as="geometry" />
        </mxCell>
        <mxCell id="9LDn9u9Lr8wdJQs9lt3B-73" value="系统创建待办自动流转有管辖权的设区市&lt;div&gt;或&lt;span style=&quot;background-color: initial;&quot;&gt;人社手动流转&lt;/span&gt;&lt;/div&gt;" style="whiteSpace=wrap;html=1;strokeWidth=2;" vertex="1" parent="9LDn9u9Lr8wdJQs9lt3B-3">
          <mxGeometry x="100" y="630" width="120" height="60" as="geometry" />
        </mxCell>
        <mxCell id="9LDn9u9Lr8wdJQs9lt3B-65" value="&lt;p class=&quot;MsoNormal&quot;&gt;&lt;span style=&quot;mso-spacerun:&#39;yes&#39;;font-family:宋体;mso-ascii-font-family:Calibri;&lt;br/&gt;mso-hansi-font-family:Calibri;mso-bidi-font-family:&#39;Times New Roman&#39;;font-size:10.5000pt;&lt;br/&gt;mso-font-kerning:1.0000pt;&quot;&gt;提醒施工单位确认试算结果，进行工资保证金备案，可人工触发发送短信&lt;/span&gt;&lt;/p&gt;" style="whiteSpace=wrap;html=1;strokeWidth=2;" vertex="1" parent="9LDn9u9Lr8wdJQs9lt3B-3">
          <mxGeometry x="92.50999999999999" y="810" width="135" height="70" as="geometry" />
        </mxCell>
        <mxCell id="9LDn9u9Lr8wdJQs9lt3B-69" style="edgeStyle=orthogonalEdgeStyle;rounded=0;orthogonalLoop=1;jettySize=auto;html=1;entryX=0.5;entryY=0;entryDx=0;entryDy=0;" edge="1" parent="9LDn9u9Lr8wdJQs9lt3B-3" source="9LDn9u9Lr8wdJQs9lt3B-62" target="9LDn9u9Lr8wdJQs9lt3B-65">
          <mxGeometry relative="1" as="geometry" />
        </mxCell>
        <mxCell id="9LDn9u9Lr8wdJQs9lt3B-88" value="" style="edgeStyle=orthogonalEdgeStyle;rounded=0;orthogonalLoop=1;jettySize=auto;html=1;" edge="1" parent="9LDn9u9Lr8wdJQs9lt3B-3" source="9LDn9u9Lr8wdJQs9lt3B-85" target="9LDn9u9Lr8wdJQs9lt3B-87">
          <mxGeometry relative="1" as="geometry" />
        </mxCell>
        <mxCell id="9LDn9u9Lr8wdJQs9lt3B-92" value="YES" style="edgeLabel;html=1;align=center;verticalAlign=middle;resizable=0;points=[];" vertex="1" connectable="0" parent="9LDn9u9Lr8wdJQs9lt3B-88">
          <mxGeometry x="0.2133" relative="1" as="geometry">
            <mxPoint as="offset" />
          </mxGeometry>
        </mxCell>
        <mxCell id="9LDn9u9Lr8wdJQs9lt3B-85" value="审核通过？" style="rhombus;whiteSpace=wrap;html=1;strokeWidth=2;" vertex="1" parent="9LDn9u9Lr8wdJQs9lt3B-3">
          <mxGeometry x="90" y="1450" width="140" height="60" as="geometry" />
        </mxCell>
        <mxCell id="9LDn9u9Lr8wdJQs9lt3B-87" value="出具缴存通知书，并支持人工触发短信提醒" style="whiteSpace=wrap;html=1;strokeWidth=2;" vertex="1" parent="9LDn9u9Lr8wdJQs9lt3B-3">
          <mxGeometry x="95.01" y="1584" width="130" height="60" as="geometry" />
        </mxCell>
        <mxCell id="9LDn9u9Lr8wdJQs9lt3B-4" value="金融机构" style="swimlane;startSize=20;html=1;" vertex="1" parent="9LDn9u9Lr8wdJQs9lt3B-1">
          <mxGeometry x="1165" y="20" width="327.5" height="1960" as="geometry" />
        </mxCell>
        <mxCell id="9LDn9u9Lr8wdJQs9lt3B-102" value="企业到金融机构办理缴存" style="whiteSpace=wrap;html=1;strokeWidth=2;" vertex="1" parent="9LDn9u9Lr8wdJQs9lt3B-4">
          <mxGeometry x="45.00000000000001" y="1850" width="120" height="60" as="geometry" />
        </mxCell>
        <mxCell id="9LDn9u9Lr8wdJQs9lt3B-78" style="edgeStyle=orthogonalEdgeStyle;rounded=0;orthogonalLoop=1;jettySize=auto;html=1;entryX=0.5;entryY=0;entryDx=0;entryDy=0;" edge="1" parent="9LDn9u9Lr8wdJQs9lt3B-1" source="9LDn9u9Lr8wdJQs9lt3B-65" target="9LDn9u9Lr8wdJQs9lt3B-77">
          <mxGeometry relative="1" as="geometry" />
        </mxCell>
        <mxCell id="9LDn9u9Lr8wdJQs9lt3B-27" style="edgeStyle=orthogonalEdgeStyle;rounded=0;orthogonalLoop=1;jettySize=auto;html=1;entryX=0.5;entryY=0;entryDx=0;entryDy=0;" edge="1" parent="9LDn9u9Lr8wdJQs9lt3B-1" source="9LDn9u9Lr8wdJQs9lt3B-17" target="9LDn9u9Lr8wdJQs9lt3B-26">
          <mxGeometry relative="1" as="geometry" />
        </mxCell>
        <mxCell id="9LDn9u9Lr8wdJQs9lt3B-30" value="NO" style="edgeLabel;html=1;align=center;verticalAlign=middle;resizable=0;points=[];" vertex="1" connectable="0" parent="9LDn9u9Lr8wdJQs9lt3B-27">
          <mxGeometry x="-0.8153" y="-1" relative="1" as="geometry">
            <mxPoint as="offset" />
          </mxGeometry>
        </mxCell>
        <mxCell id="9LDn9u9Lr8wdJQs9lt3B-84" style="edgeStyle=orthogonalEdgeStyle;rounded=0;orthogonalLoop=1;jettySize=auto;html=1;entryX=0.5;entryY=0;entryDx=0;entryDy=0;" edge="1" parent="9LDn9u9Lr8wdJQs9lt3B-1" source="9LDn9u9Lr8wdJQs9lt3B-80" target="9LDn9u9Lr8wdJQs9lt3B-45">
          <mxGeometry relative="1" as="geometry">
            <mxPoint x="400" y="1170" as="targetPoint" />
          </mxGeometry>
        </mxCell>
        <mxCell id="9LDn9u9Lr8wdJQs9lt3B-90" value="" style="edgeStyle=orthogonalEdgeStyle;rounded=0;orthogonalLoop=1;jettySize=auto;html=1;entryX=0.5;entryY=0;entryDx=0;entryDy=0;" edge="1" parent="9LDn9u9Lr8wdJQs9lt3B-1" source="9LDn9u9Lr8wdJQs9lt3B-85" target="9LDn9u9Lr8wdJQs9lt3B-89">
          <mxGeometry relative="1" as="geometry" />
        </mxCell>
        <mxCell id="9LDn9u9Lr8wdJQs9lt3B-91" value="NO" style="edgeLabel;html=1;align=center;verticalAlign=middle;resizable=0;points=[];" vertex="1" connectable="0" parent="9LDn9u9Lr8wdJQs9lt3B-90">
          <mxGeometry x="-0.379" relative="1" as="geometry">
            <mxPoint as="offset" />
          </mxGeometry>
        </mxCell>
        <mxCell id="9LDn9u9Lr8wdJQs9lt3B-95" style="edgeStyle=orthogonalEdgeStyle;rounded=0;orthogonalLoop=1;jettySize=auto;html=1;entryX=0;entryY=0.5;entryDx=0;entryDy=0;exitX=0;exitY=0.5;exitDx=0;exitDy=0;" edge="1" parent="9LDn9u9Lr8wdJQs9lt3B-1" source="9LDn9u9Lr8wdJQs9lt3B-89" target="9LDn9u9Lr8wdJQs9lt3B-50">
          <mxGeometry relative="1" as="geometry" />
        </mxCell>
        <mxCell id="9LDn9u9Lr8wdJQs9lt3B-97" style="edgeStyle=orthogonalEdgeStyle;rounded=0;orthogonalLoop=1;jettySize=auto;html=1;entryX=1;entryY=0.5;entryDx=0;entryDy=0;" edge="1" parent="9LDn9u9Lr8wdJQs9lt3B-1" source="9LDn9u9Lr8wdJQs9lt3B-87" target="9LDn9u9Lr8wdJQs9lt3B-96">
          <mxGeometry relative="1" as="geometry">
            <Array as="points">
              <mxPoint x="400" y="1710" />
            </Array>
          </mxGeometry>
        </mxCell>
        <mxCell id="9LDn9u9Lr8wdJQs9lt3B-103" value="" style="edgeStyle=orthogonalEdgeStyle;rounded=0;orthogonalLoop=1;jettySize=auto;html=1;exitX=1;exitY=0.5;exitDx=0;exitDy=0;" edge="1" parent="9LDn9u9Lr8wdJQs9lt3B-1" source="9LDn9u9Lr8wdJQs9lt3B-98" target="9LDn9u9Lr8wdJQs9lt3B-102">
          <mxGeometry relative="1" as="geometry">
            <mxPoint x="253.27999999999838" y="1810.0000000000005" as="sourcePoint" />
          </mxGeometry>
        </mxCell>
        <mxCell id="9LDn9u9Lr8wdJQs9lt3B-39" value="" style="strokeWidth=2;html=1;shape=mxgraph.flowchart.annotation_2;align=left;labelPosition=right;pointerEvents=1;" vertex="1" parent="WIyWlLk6GJQsqaUBKTNV-1">
          <mxGeometry x="140" y="190" width="50" height="420" as="geometry" />
        </mxCell>
        <mxCell id="9LDn9u9Lr8wdJQs9lt3B-40" value="备案提醒" style="whiteSpace=wrap;html=1;" vertex="1" parent="WIyWlLk6GJQsqaUBKTNV-1">
          <mxGeometry x="30" y="370" width="120" height="60" as="geometry" />
        </mxCell>
        <mxCell id="9LDn9u9Lr8wdJQs9lt3B-54" value="" style="strokeWidth=2;html=1;shape=mxgraph.flowchart.annotation_2;align=left;labelPosition=right;pointerEvents=1;" vertex="1" parent="WIyWlLk6GJQsqaUBKTNV-1">
          <mxGeometry x="140" y="710" width="50" height="60" as="geometry" />
        </mxCell>
        <mxCell id="9LDn9u9Lr8wdJQs9lt3B-55" value="&lt;p class=&quot;MsoNormal&quot;&gt;&lt;b&gt;&lt;span style=&quot;font-family: 宋体; font-size: 10.5pt;&quot;&gt;额度试算&lt;/span&gt;&lt;/b&gt;&lt;/p&gt;" style="whiteSpace=wrap;html=1;" vertex="1" parent="WIyWlLk6GJQsqaUBKTNV-1">
          <mxGeometry x="20" y="710" width="120" height="60" as="geometry" />
        </mxCell>
        <mxCell id="9LDn9u9Lr8wdJQs9lt3B-71" value="&lt;p class=&quot;MsoNormal&quot;&gt;&lt;b&gt;&lt;span style=&quot;font-family: 宋体; font-size: 10.5pt;&quot;&gt;分配流转&lt;/span&gt;&lt;/b&gt;&lt;br&gt;&lt;/p&gt;" style="whiteSpace=wrap;html=1;" vertex="1" parent="WIyWlLk6GJQsqaUBKTNV-1">
          <mxGeometry x="20" y="850" width="120" height="60" as="geometry" />
        </mxCell>
        <mxCell id="9LDn9u9Lr8wdJQs9lt3B-72" value="" style="strokeWidth=2;html=1;shape=mxgraph.flowchart.annotation_2;align=left;labelPosition=right;pointerEvents=1;" vertex="1" parent="WIyWlLk6GJQsqaUBKTNV-1">
          <mxGeometry x="140" y="830" width="50" height="90" as="geometry" />
        </mxCell>
        <mxCell id="9LDn9u9Lr8wdJQs9lt3B-75" value="&lt;p class=&quot;MsoNormal&quot;&gt;&lt;b&gt;&lt;span style=&quot;font-family: 宋体; font-size: 10.5pt;&quot;&gt;缴存提醒&lt;/span&gt;&lt;/b&gt;&lt;/p&gt;" style="whiteSpace=wrap;html=1;" vertex="1" parent="WIyWlLk6GJQsqaUBKTNV-1">
          <mxGeometry x="20" y="952.5" width="120" height="60" as="geometry" />
        </mxCell>
        <mxCell id="9LDn9u9Lr8wdJQs9lt3B-76" value="" style="strokeWidth=2;html=1;shape=mxgraph.flowchart.annotation_2;align=left;labelPosition=right;pointerEvents=1;" vertex="1" parent="WIyWlLk6GJQsqaUBKTNV-1">
          <mxGeometry x="140" y="945" width="50" height="75" as="geometry" />
        </mxCell>
      </root>
    </mxGraphModel>
  </diagram>
</mxfile>
